<?xml version="1.0" encoding="utf-8"?>
<!-- Generator: Adobe Illustrator 25.3.0, SVG Export Plug-In . SVG Version: 6.00 Build 0)  -->
<svg version="1.1" id="Ebene_1" xmlns="http://www.w3.org/2000/svg" xmlns:xlink="http://www.w3.org/1999/xlink" x="0px" y="0px"
	 viewBox="0 0 179.6 327.4" style="enable-background:new 0 0 179.6 327.4;" xml:space="preserve">
<style type="text/css">
	.st0{fill:url(#SVGID_1_);}
</style>
<radialGradient id="SVGID_1_" cx="86.187" cy="147.7383" r="132.037" gradientUnits="userSpaceOnUse">
	<stop  offset="0.1527" style="stop-color:#F8FF3F"/>
	<stop  offset="0.302" style="stop-color:#FAEA30"/>
	<stop  offset="0.6009" style="stop-color:#FDC616"/>
	<stop  offset="0.8442" style="stop-color:#FEB006"/>
	<stop  offset="1" style="stop-color:#FFA800"/>
</radialGradient>
<path class="st0" d="M148.6,0.1L12.4,26.8c-2.2,0.4-3.9,2.3-4,4.6L0,172.9c-0.2,3.3,2.9,5.9,6.1,5.2l37.9-8.7c3.5-0.8,6.8,2.3,6,5.9
	l-11.3,55.2c-0.8,3.7,2.7,6.9,6.4,5.8l23.4-7.1c3.6-1.1,7.1,2.1,6.3,5.8L57,321.4c-1.1,5.4,6.1,8.4,9.1,3.7l2-3.1l111-221.4
	c1.9-3.7-1.3-7.9-5.4-7.1l-39,7.5c-3.7,0.7-6.8-2.7-5.8-6.3l25.5-88.3C155.4,2.8,152.2-0.6,148.6,0.1z"/>
</svg>
